<svg id="Capa_1" enable-background="new 0 0 512 512" height="512" viewBox="0 0 512 512" width="512" xmlns="http://www.w3.org/2000/svg"><g><path d="m512 256c0 141.385-114.615 256-256 256s-256-114.615-256-256 114.615-256 256-256 256 114.615 256 256z" fill="#19305c"/><path d="m464.873 235.897c8.201 12.361 12.979 27.191 12.979 43.137 0 37.336-26.19 68.555-61.2 76.289 1.525 6.092 2.334 12.468 2.334 19.032 0 43.149-34.979 78.128-78.127 78.128-11.607 0-22.623-2.531-32.526-7.072-14.03 20.849-37.845 34.564-64.864 34.564-28.129 0-52.786-14.866-66.544-37.169-32.38 1.56-60.801-7.071-80.73-27-19.263-19.263-27.97-46.459-27.123-77.496-20.365-9.226-34.532-29.73-34.532-53.542 0-16.611 6.894-31.612 17.977-42.298-5.98-11.047-9.376-23.697-9.376-37.142 0-43.148 34.979-78.127 78.128-78.127 8.386 0 16.463 1.321 24.035 3.767-.527-3.663-.799-7.407-.799-11.215 0-43.149 34.979-78.127 78.128-78.127 27.651 0 51.947 14.364 65.833 36.038 51.137-15.569 98.273-10.539 127.343 18.531 6.312 6.312 11.491 13.477 15.571 21.349 28.456 11.672 48.497 39.652 48.497 72.313-.003 17.214-5.571 33.129-15.004 46.04z" fill="#2b3894"/><path d="m363.898 363.898c-68.193 68.192-171.781 75.166-231.371 15.576s-52.617-163.179 15.575-231.372c68.193-68.192 171.781-75.166 231.371-15.576s52.617 163.179-15.575 231.372zm-180.938-297.563c-3.962 2.482-7.31 5.831-9.792 9.792-.459.733-1.527.733-1.987 0-2.482-3.962-5.83-7.31-9.792-9.792-.733-.459-.733-1.527 0-1.987 3.962-2.482 7.31-5.83 9.792-9.792.459-.733 1.528-.733 1.987 0 2.482 3.962 5.83 7.31 9.792 9.792.733.46.733 1.528 0 1.987zm-76.05 345.327c-3.962-2.482-7.31-5.83-9.792-9.792-.459-.733-1.528-.733-1.987 0-2.482 3.962-5.83 7.31-9.792 9.792-.733.459-.733 1.527 0 1.987 3.962 2.482 7.31 5.83 9.792 9.792.459.733 1.527.733 1.987 0 2.482-3.962 5.83-7.31 9.792-9.792.734-.459.734-1.527 0-1.987zm0-278.226c-3.962-2.482-7.31-5.83-9.792-9.792-.459-.733-1.528-.733-1.987 0-2.482 3.962-5.83 7.31-9.792 9.792-.733.459-.733 1.527 0 1.987 3.962 2.482 7.31 5.83 9.792 9.792.459.733 1.527.733 1.987 0 2.482-3.962 5.83-7.31 9.792-9.792.734-.459.734-1.527 0-1.987zm337.532-18.094c-3.962-2.482-7.31-5.83-9.792-9.792-.459-.733-1.528-.733-1.987 0-2.482 3.962-5.83 7.31-9.792 9.792-.733.459-.733 1.527 0 1.987 3.962 2.482 7.31 5.83 9.792 9.792.459.733 1.527.733 1.987 0 2.482-3.962 5.83-7.31 9.792-9.792.734-.459.734-1.527 0-1.987zm-78.986 304.123c-3.962-2.482-7.31-5.831-9.792-9.792-.459-.733-1.528-.733-1.987 0-2.482 3.962-5.83 7.31-9.792 9.792-.733.459-.733 1.527 0 1.987 3.962 2.482 7.31 5.83 9.792 9.792.459.733 1.528.733 1.987 0 2.482-3.962 5.83-7.31 9.792-9.792.733-.46.733-1.528 0-1.987z" fill="#3342ae"/><path d="m452.464 303.609c-.316 4.13-3.92 7.222-8.05 6.906-4.131-.316-7.222-3.92-6.906-8.05 2.866-37.459-10.473-72.486-34.093-98.176 7.442 18.757 4.344 39.974-9.741 54.059-7.602 7.602-17.28 12.003-27.529 13.274 1.836 26.541-3.688 53.13-16.346 77.26-18.029 34.367-48.388 59.665-85.486 71.234-3.955 1.233-8.159-.972-9.393-4.927-1.233-3.955.972-8.159 4.927-9.393 38.257-11.93 67.126-39.97 81.479-74.34-.85.951-1.73 1.884-2.642 2.795-19.595 19.595-48.554 24.764-74.992 16.059-.365.538-.806 1.036-1.323 1.479-29.495 25.302-67.049 37.605-105.746 34.645-38.696-2.962-73.94-20.835-99.242-50.33-2.697-3.144-2.335-7.878.809-10.576s7.879-2.335 10.576.81c34.817 40.586 89.365 54.473 137.483 39.661-13.445.167-25.618-2.759-35.54-9.019-30.1-12.413-54.982-34.408-71.123-63.212-18.971-33.856-23.615-73.1-13.076-110.504 1.123-3.987 5.266-6.308 9.253-5.185s6.308 5.266 5.185 9.253c-11.675 41.436-1.859 83.933 22.755 115.547-6.26-18.14-2.846-38.157 10.637-51.64 5.826-5.826 12.872-9.771 20.459-11.869-3.386-28.583 1.81-57.5 15.319-83.601 17.84-34.465 48.06-59.929 85.095-71.701 3.948-1.255 8.165.928 9.419 4.875 1.255 3.948-.928 8.165-4.876 9.42-43.971 13.976-75.381 49.239-86.485 90.82 2.17-3.058 4.617-5.966 7.344-8.693 16.149-16.149 38.658-22.5 60.874-19.361 21.318-20.173 48.208-33.379 77.808-37.886 38.367-5.84 76.734 3.625 108.035 26.655 3.337 2.455 4.052 7.149 1.596 10.486-2.455 3.336-7.149 4.051-10.486 1.596-38.925-28.638-88.633-32.4-129.978-14.199 13.33-2.5 25.91-2.408 36.953.467 36.054 4.431 68.678 21.877 92.457 49.597 25.272 29.457 37.555 67.017 34.59 105.764z" fill="#865cb2"/><path d="m348.992 252.78c0 19.566-15.861 35.428-35.427 35.428-.811 0-1.615-.028-2.413-.082.609 2.602.931 5.314.931 8.102 0 19.566-15.862 35.428-35.428 35.428-8.437 0-16.184-2.949-22.269-7.873-30.833 18.533-60.235 22.922-74.663 8.494-9.87-9.87-10.934-26.749-4.688-46.299-6.486-6.421-10.504-15.33-10.504-25.177 0-18.667 14.436-33.961 32.753-35.328-.222-1.602-.336-3.237-.336-4.9 0-19.566 15.862-35.428 35.428-35.428 7.475 0 14.409 2.315 20.125 6.268 32.656-21.187 64.552-26.913 79.776-11.688 9.891 9.891 10.938 26.819 4.648 46.422 7.397 6.492 12.067 16.017 12.067 26.633z" fill="#ff50b5"/><path d="m282.038 282.038c-29.532 29.533-65.131 41.816-79.511 27.436s-2.097-49.979 27.436-79.511c29.532-29.533 65.131-41.816 79.511-27.436s2.096 49.978-27.436 79.511z" fill="#ff3c7d"/><path d="m271.948 271.948c-24.148 24.147-50.863 36.583-59.671 27.775s3.627-35.523 27.775-59.671c24.148-24.147 50.863-36.583 59.671-27.775 8.808 8.807-3.627 35.523-27.775 59.671z" fill="#ffcd71"/><path d="m271.948 271.948c-16.458 16.458-34.109 27.475-46.47 30.034-.504-12.132 11.309-33.05 30.59-52.33 16.458-16.458 34.109-27.475 46.47-30.034.504 12.132-11.309 33.049-30.59 52.33z" fill="#fff68e"/><path d="m380.471 96.718c-5.314 3.329-9.804 7.819-13.133 13.133-.616.983-2.049.983-2.665 0-3.329-5.314-7.819-9.804-13.133-13.133-.983-.616-.983-2.049 0-2.665 5.314-3.329 9.804-7.82 13.133-13.133.616-.983 2.049-.983 2.665 0 3.329 5.313 7.819 9.804 13.133 13.133.984.616.984 2.049 0 2.665zm43.198 208.346c-5.314-3.329-9.804-7.819-13.133-13.133-.616-.983-2.049-.983-2.665 0-3.329 5.314-7.819 9.804-13.133 13.133-.983.616-.983 2.049 0 2.665 5.314 3.329 9.804 7.82 13.133 13.133.616.983 2.049.983 2.665 0 3.329-5.313 7.819-9.804 13.133-13.133.983-.616.983-2.048 0-2.665z" fill="#ffb52d"/><path d="m381.167 220.611c-3.962 2.482-7.31 5.831-9.792 9.792-.459.733-1.528.733-1.987 0-2.482-3.962-5.83-7.31-9.792-9.792-.733-.459-.733-1.527 0-1.987 3.962-2.482 7.31-5.83 9.792-9.792.459-.733 1.528-.733 1.987 0 2.482 3.962 5.83 7.31 9.792 9.792.733.46.733 1.528 0 1.987zm-327.704 30.836c-5.314-3.329-9.804-7.819-13.133-13.133-.616-.983-2.049-.983-2.665 0-3.329 5.314-7.819 9.804-13.133 13.133-.983.616-.983 2.049 0 2.665 5.314 3.329 9.804 7.819 13.133 13.133.616.983 2.049.983 2.665 0 3.329-5.314 7.819-9.804 13.133-13.133.983-.616.983-2.049 0-2.665z" fill="#ffcd71"/><path d="m56.13 130.173c-6.294 3.943-11.612 9.261-15.555 15.555-.73 1.165-2.426 1.165-3.156 0-3.943-6.294-9.261-11.612-15.554-15.555-1.165-.729-1.165-2.426 0-3.156 6.293-3.942 11.612-9.261 15.554-15.554.73-1.165 2.426-1.165 3.156 0 3.943 6.293 9.261 11.612 15.555 15.554 1.164.73 1.164 2.426 0 3.156zm272.516-88.745c-6.293-3.943-11.612-9.261-15.554-15.555-.73-1.165-2.427-1.165-3.156 0-3.943 6.293-9.261 11.612-15.555 15.555-1.165.729-1.165 2.426 0 3.156 6.294 3.943 11.612 9.261 15.555 15.555.729 1.165 2.426 1.165 3.156 0 3.943-6.293 9.261-11.612 15.554-15.555 1.164-.73 1.164-2.426 0-3.156zm-68.045 421.756c-6.293-3.943-11.612-9.261-15.554-15.554-.73-1.165-2.426-1.165-3.156 0-3.943 6.293-9.261 11.611-15.555 15.554-1.165.73-1.165 2.426 0 3.156 6.294 3.943 11.612 9.261 15.555 15.554.73 1.165 2.426 1.165 3.156 0 3.943-6.293 9.261-11.611 15.554-15.554 1.164-.73 1.164-2.426 0-3.156zm-34.784-271.39c-3.962-2.482-7.31-5.83-9.792-9.792-.459-.733-1.527-.733-1.987 0-2.482 3.962-5.83 7.31-9.792 9.792-.733.459-.733 1.528 0 1.987 3.962 2.482 7.31 5.83 9.792 9.792.459.733 1.528.733 1.987 0 2.482-3.962 5.83-7.31 9.792-9.792.733-.459.733-1.528 0-1.987zm262.82 11.336c-3.962-2.482-7.31-5.83-9.792-9.792-.459-.733-1.528-.733-1.987 0-2.482 3.962-5.83 7.31-9.792 9.792-.733.459-.733 1.527 0 1.987 3.962 2.482 7.31 5.83 9.792 9.792.459.733 1.528.733 1.987 0 2.482-3.962 5.83-7.31 9.792-9.792.733-.46.733-1.528 0-1.987z" fill="#fff68e"/><path d="m125.324 85.043c-3.962 2.482-7.31 5.831-9.792 9.792-.459.733-1.527.733-1.987 0-2.482-3.962-5.83-7.31-9.792-9.792-.733-.459-.733-1.527 0-1.987 3.962-2.482 7.31-5.83 9.792-9.792.459-.733 1.528-.733 1.987 0 2.482 3.962 5.83 7.31 9.792 9.792.734.46.734 1.528 0 1.987zm96.757 327.33c-3.962-2.482-7.31-5.83-9.792-9.792-.459-.733-1.528-.733-1.987 0-2.482 3.962-5.83 7.31-9.792 9.792-.733.459-.733 1.527 0 1.987 3.962 2.482 7.31 5.83 9.792 9.792.459.733 1.527.733 1.987 0 2.482-3.962 5.83-7.31 9.792-9.792.733-.46.733-1.528 0-1.987zm239.503-36.695c-3.962-2.482-7.31-5.831-9.792-9.792-.459-.733-1.528-.733-1.987 0-2.482 3.962-5.83 7.31-9.792 9.792-.733.459-.733 1.527 0 1.987 3.962 2.482 7.31 5.83 9.792 9.792.459.733 1.528.733 1.987 0 2.482-3.962 5.83-7.31 9.792-9.792.733-.459.733-1.528 0-1.987z" fill="#cc59a8"/></g></svg>